<svg width="38.41" height="66.94" viewBox="0 0 38.41 66.94" xmlns="http://www.w3.org/2000/svg" xmlns:xlink="http://www.w3.org/1999/xlink" overflow="visible"><defs></defs><g id="Idea_1_"><path d="M38.33 20.72C38.38 20.21 38.41 19.7 38.41 19.2 38.41 8.6 29.81 0 19.2 0 8.6 0 0 8.6 0 19.2 0 19.7 0.03 20.21 0.08 20.72 0.2 22.28 0.51 23.79 0.98 25.22 3.47 33.61 9.89 41.94 9.89 46.11L19.21 46.11 28.53 46.11C28.53 41.94 34.94 33.61 37.44 25.22 37.9 23.79 38.21 22.28 38.33 20.72Z" id="XMLID_3_" fill="#006443"/><path d="M22.11 66.94 16.29 66.94C12.75 66.94 9.88 64.07 9.88 60.53L9.88 60.53 28.52 60.53 28.52 60.53C28.53 64.07 25.66 66.94 22.11 66.94Z" id="XMLID_2_" fill="#006443"/><path d="M9.88 50.11 9.88 52.12 9.88 56.52 28.53 56.52 28.53 52.12 28.53 50.11Z" id="XMLID_1_" fill="#A3C53A"/></g></svg>