<svg width="67.33" height="52.83" viewBox="0 0 67.33 52.83" xmlns="http://www.w3.org/2000/svg" xmlns:xlink="http://www.w3.org/1999/xlink" overflow="visible"><defs></defs><g id="Working_1_"><g id="XMLID_5_"><circle cx="26.41" cy="26.41" r="6.83" id="XMLID_9_" fill="#A3C53A"/><path d="M51.62 23.57 48.23 23.1C47.69 19.48 46.26 16.15 44.18 13.33L46.25 10.6C46.67 10.04 46.62 9.26 46.13 8.77L44.05 6.7C43.56 6.21 42.78 6.15 42.22 6.58L39.49 8.65C36.67 6.57 33.34 5.15 29.72 4.6L29.25 1.21C29.17 0.51 28.58 0 27.88 0L24.95 0C24.25 0 23.66 0.51 23.57 1.21L23.1 4.6C19.48 5.14 16.15 6.57 13.33 8.65L10.6 6.58C10.05 6.15 9.27 6.21 8.77 6.7L6.7 8.77C6.21 9.26 6.15 10.04 6.58 10.6L8.65 13.33C6.57 16.15 5.15 19.48 4.6 23.1L1.21 23.57C0.51 23.66 0 24.25 0 24.95L0 27.88C0 28.58 0.51 29.17 1.21 29.26L4.6 29.73C5.14 33.35 6.57 36.68 8.65 39.5L6.58 42.23C6.16 42.79 6.21 43.57 6.7 44.06L8.77 46.13C9.26 46.62 10.04 46.68 10.6 46.25L13.33 44.18C16.15 46.26 19.48 47.68 23.1 48.23L23.57 51.62C23.66 52.31 24.25 52.83 24.95 52.83L27.88 52.83C28.58 52.83 29.17 52.32 29.26 51.62L29.73 48.23C33.35 47.68 36.68 46.26 39.5 44.18L42.23 46.25C42.79 46.67 43.57 46.62 44.06 46.13L46.13 44.06C46.62 43.57 46.68 42.79 46.25 42.23L44.18 39.5C46.26 36.68 47.68 33.35 48.23 29.73L51.62 29.26C52.31 29.17 52.83 28.58 52.83 27.88L52.83 24.95C52.83 24.25 52.31 23.66 51.62 23.57ZM26.41 42.33C17.63 42.33 10.49 35.19 10.49 26.41 10.49 17.63 17.63 10.49 26.41 10.49 35.19 10.49 42.33 17.63 42.33 26.41 42.33 35.19 35.19 42.33 26.41 42.33Z" id="XMLID_6_" fill="#006443"/></g><g id="XMLID_1_"><path d="M66.89 39.5 65.66 39.33C65.46 38.02 64.95 36.81 64.19 35.79L64.94 34.8C65.09 34.6 65.07 34.31 64.89 34.14L64.14 33.39C63.96 33.21 63.68 33.19 63.48 33.34L62.49 34.09C61.47 33.34 60.26 32.82 58.95 32.62L58.78 31.39C58.75 31.14 58.53 30.95 58.28 30.95L57.22 30.95C56.97 30.95 56.75 31.14 56.72 31.39L56.55 32.62C55.24 32.82 54.03 33.33 53.01 34.09L52.02 33.34C51.82 33.19 51.53 33.21 51.36 33.39L50.61 34.14C50.43 34.32 50.41 34.6 50.56 34.8L51.31 35.79C50.56 36.81 50.04 38.02 49.84 39.33L48.6 39.5C48.35 39.53 48.16 39.75 48.16 40L48.16 41.06C48.16 41.31 48.35 41.53 48.6 41.56L49.83 41.73C50.03 43.04 50.54 44.25 51.3 45.27L50.55 46.26C50.4 46.46 50.42 46.75 50.6 46.92L51.35 47.67C51.53 47.85 51.81 47.87 52.01 47.72L53 46.97C54.02 47.72 55.23 48.24 56.54 48.44L56.71 49.67C56.74 49.92 56.96 50.11 57.21 50.11L58.27 50.11C58.52 50.11 58.74 49.92 58.77 49.67L58.94 48.44C60.25 48.24 61.46 47.73 62.48 46.97L63.47 47.72C63.67 47.87 63.96 47.85 64.13 47.67L64.88 46.92C65.06 46.74 65.08 46.46 64.93 46.26L64.18 45.27C64.93 44.25 65.45 43.04 65.65 41.73L66.88 41.56C67.13 41.53 67.32 41.31 67.32 41.06L67.32 40C67.33 39.74 67.14 39.53 66.89 39.5ZM57.75 44.36C55.64 44.36 53.92 42.64 53.92 40.53 53.92 38.42 55.64 36.7 57.75 36.7 59.86 36.7 61.58 38.42 61.58 40.53 61.58 42.64 59.86 44.36 57.75 44.36Z" id="XMLID_2_" fill="#006443"/></g></g></svg>