<?xml version="1.0" standalone="yes"?>
<svg xmlns="http://www.w3.org/2000/svg" width="5443" height="102">
<path style="fill:#016543; stroke:none;" d="M0 0L0 102L3247 102L3215 77.6258L3151 29.8735L3123 8.88426L3110.83 0.317131L3088 0L3039 0L2882 0L2373 0L0 0z"/>
<path style="fill:#75aa3d; stroke:none;" d="M3113 0L3114 1L3113 0z"/>
<path style="fill:#a3c53b; stroke:none;" d="M3114 0C3118.33 8.87308 3131.21 15.2853 3139 21.1265C3158.96 36.0949 3179.03 50.9193 3199 65.8735C3209.97 74.084 3221.04 82.1528 3232 90.3735C3236.82 93.9916 3242.19 99.5588 3248 101.436C3260.1 105.346 3278.29 102 3291 102L3387 102L3693 102L5443 102L5443 0L3114 0z"/>
<path style="fill:#5d9b3f; stroke:none;" d="M3113 1L3114 2L3113 1z"/>
<path style="fill:#75aa3d; stroke:none;" d="M3114 2L3115 3L3114 2z"/>
<path style="fill:#5d9b3f; stroke:none;" d="M3115 3L3116 4L3115 3z"/>
<path style="fill:#3d8940; stroke:none;" d="M3116 4L3117 5L3116 4z"/>
<path style="fill:#75aa3d; stroke:none;" d="M3118 5L3119 6L3118 5z"/>
<path style="fill:#5d9b3f; stroke:none;" d="M3119 6L3120 7L3119 6z"/>
<path style="fill:#75aa3d; stroke:none;" d="M3122 8L3123 9L3122 8z"/>
<path style="fill:#3d8940; stroke:none;" d="M3123 9L3124 10L3123 9z"/>
<path style="fill:#75aa3d; stroke:none;" d="M3126 11L3127 12L3126 11z"/>
<path style="fill:#3d8940; stroke:none;" d="M3127 12L3128 13L3127 12z"/>
<path style="fill:#75aa3d; stroke:none;" d="M3130 14L3131 15L3130 14z"/>
<path style="fill:#3d8940; stroke:none;" d="M3131 15L3132 16L3131 15z"/>
<path style="fill:#75aa3d; stroke:none;" d="M3134 17L3135 18L3134 17z"/>
<path style="fill:#3d8940; stroke:none;" d="M3135 18L3136 19L3135 18z"/>
<path style="fill:#75aa3d; stroke:none;" d="M3138 20L3139 21L3138 20z"/>
<path style="fill:#3d8940; stroke:none;" d="M3139 21L3140 22L3139 21z"/>
<path style="fill:#75aa3d; stroke:none;" d="M3142 23L3143 24L3142 23z"/>
<path style="fill:#3d8940; stroke:none;" d="M3143 24L3144 25L3143 24z"/>
<path style="fill:#5d9b3f; stroke:none;" d="M3146 26L3147 27L3146 26z"/>
<path style="fill:#3d8940; stroke:none;" d="M3147 27L3148 28L3147 27z"/>
<path style="fill:#5d9b3f; stroke:none;" d="M3150 29L3151 30L3150 29z"/>
<path style="fill:#3d8940; stroke:none;" d="M3151 30L3152 31L3151 30z"/>
<path style="fill:#75aa3d; stroke:none;" d="M3153 31L3154 32L3153 31z"/>
<path style="fill:#5d9b3f; stroke:none;" d="M3154 32L3155 33L3154 32z"/>
<path style="fill:#3d8940; stroke:none;" d="M3155 33L3156 34L3155 33z"/>
<path style="fill:#75aa3d; stroke:none;" d="M3157 34L3158 35L3157 34z"/>
<path style="fill:#5d9b3f; stroke:none;" d="M3158 35L3159 36L3158 35z"/>
<path style="fill:#3d8940; stroke:none;" d="M3159 36L3160 37L3159 36z"/>
<path style="fill:#75aa3d; stroke:none;" d="M3161 37L3162 38L3161 37z"/>
<path style="fill:#5d9b3f; stroke:none;" d="M3162 38L3163 39L3162 38z"/>
<path style="fill:#3d8940; stroke:none;" d="M3163 39L3164 40L3163 39z"/>
<path style="fill:#75aa3d; stroke:none;" d="M3165 40L3166 41L3165 40z"/>
<path style="fill:#5d9b3f; stroke:none;" d="M3166 41L3167 42L3166 41z"/>
<path style="fill:#3d8940; stroke:none;" d="M3167 42L3168 43L3167 42z"/>
<path style="fill:#75aa3d; stroke:none;" d="M3169 43L3170 44L3169 43z"/>
<path style="fill:#5d9b3f; stroke:none;" d="M3170 44L3171 45L3170 44z"/>
<path style="fill:#75aa3d; stroke:none;" d="M3173 46L3174 47L3173 46z"/>
<path style="fill:#3d8940; stroke:none;" d="M3174 47L3175 48L3174 47z"/>
<path style="fill:#75aa3d; stroke:none;" d="M3177 49L3178 50L3177 49z"/>
<path style="fill:#3d8940; stroke:none;" d="M3178 50L3179 51L3178 50z"/>
<path style="fill:#75aa3d; stroke:none;" d="M3181 52L3182 53L3181 52z"/>
<path style="fill:#3d8940; stroke:none;" d="M3182 53L3183 54L3182 53z"/>
<path style="fill:#75aa3d; stroke:none;" d="M3185 55L3186 56L3185 55z"/>
<path style="fill:#3d8940; stroke:none;" d="M3186 56L3187 57L3186 56z"/>
<path style="fill:#75aa3d; stroke:none;" d="M3189 58L3190 59L3189 58z"/>
<path style="fill:#3d8940; stroke:none;" d="M3190 59L3191 60L3190 59z"/>
<path style="fill:#75aa3d; stroke:none;" d="M3193 61L3194 62L3193 61z"/>
<path style="fill:#3d8940; stroke:none;" d="M3194 62L3195 63L3194 62z"/>
<path style="fill:#5d9b3f; stroke:none;" d="M3197 64L3198 65L3197 64z"/>
<path style="fill:#3d8940; stroke:none;" d="M3198 65L3199 66L3198 65z"/>
<path style="fill:#5d9b3f; stroke:none;" d="M3201 67L3202 68L3201 67z"/>
<path style="fill:#3d8940; stroke:none;" d="M3202 68L3203 69L3202 68z"/>
<path style="fill:#5d9b3f; stroke:none;" d="M3205 70L3206 71L3205 70z"/>
<path style="fill:#3d8940; stroke:none;" d="M3206 71L3207 72L3206 71z"/>
<path style="fill:#75aa3d; stroke:none;" d="M3208 72L3209 73L3208 72z"/>
<path style="fill:#5d9b3f; stroke:none;" d="M3209 73L3210 74L3209 73z"/>
<path style="fill:#3d8940; stroke:none;" d="M3210 74L3211 75L3210 74z"/>
<path style="fill:#75aa3d; stroke:none;" d="M3212 75L3213 76L3212 75z"/>
<path style="fill:#5d9b3f; stroke:none;" d="M3213 76L3214 77L3213 76z"/>
<path style="fill:#3d8940; stroke:none;" d="M3214 77L3215 78L3214 77z"/>
<path style="fill:#75aa3d; stroke:none;" d="M3216 78L3217 79L3216 78z"/>
<path style="fill:#5d9b3f; stroke:none;" d="M3217 79L3218 80L3217 79z"/>
<path style="fill:#3d8940; stroke:none;" d="M3218 80L3219 81L3218 80z"/>
<path style="fill:#75aa3d; stroke:none;" d="M3220 81L3221 82L3220 81z"/>
<path style="fill:#5d9b3f; stroke:none;" d="M3221 82L3222 83L3221 82z"/>
<path style="fill:#75aa3d; stroke:none;" d="M3224 84L3225 85L3224 84z"/>
<path style="fill:#5d9b3f; stroke:none;" d="M3225 85L3226 86L3225 85z"/>
<path style="fill:#75aa3d; stroke:none;" d="M3228 87L3229 88L3228 87z"/>
<path style="fill:#3d8940; stroke:none;" d="M3229 88L3230 89L3229 88z"/>
<path style="fill:#75aa3d; stroke:none;" d="M3232 90L3233 91L3232 90z"/>
<path style="fill:#3d8940; stroke:none;" d="M3233 91L3234 92L3233 91z"/>
<path style="fill:#75aa3d; stroke:none;" d="M3236 93L3237 94L3236 93z"/>
<path style="fill:#3d8940; stroke:none;" d="M3237 94L3238 95L3237 94z"/>
<path style="fill:#75aa3d; stroke:none;" d="M3240 96L3241 97L3240 96z"/>
<path style="fill:#3d8940; stroke:none;" d="M3241 97L3242 98L3241 97z"/>
<path style="fill:#75aa3d; stroke:none;" d="M3244 99L3245 100L3244 99z"/>
<path style="fill:#3d8940; stroke:none;" d="M3245 100L3246 101L3245 100z"/>
</svg>
