<?xml version="1.0" encoding="UTF-8" standalone="no"?>
<svg
   width="73.06"
   height="90.47"
   viewBox="0 0 73.06 90.47"
   overflow="visible"
   version="1.1"
   id="svg56"
   xmlns="http://www.w3.org/2000/svg"
   xmlns:svg="http://www.w3.org/2000/svg">
  <defs
     id="defs2" />
  <g
     id="g54"
     style="fill:#ffffff">
    <path
       d="M65.39 14.89C69.98 14.89 73.07 11.89 73.07 7.4 73.07 3 69.98 0 65.39 0 60.9 0 57.81 3 57.81 7.4 57.8 11.89 60.89 14.89 65.39 14.89Z"
       fill="#006443"
       id="path4"
       style="fill:#ffffff;fill-opacity:1" />
    <g
       id="g52"
       style="fill:#ffffff">
      <path
         d="M27.14 18.95 27.14 28.02C27.14 28.63 26.61 29.1 26 29.04 23.88 28.82 21.77 28.78 20.67 28.78 19.57 28.78 17.45 28.81 15.33 29.04 14.72 29.1 14.19 28.63 14.19 28.02L14.19 20.94C14.19 19.26 15.49 17.86 17.16 17.75 18.26 17.68 19.43 17.64 20.66 17.64 22.71 17.64 24.61 17.75 26.23 17.94 26.76 18 27.14 18.44 27.14 18.95Z"
         fill="#A3C53A"
         id="path6"
         style="fill:#ffffff" />
      <path
         d="M20.67 30.52C22.89 30.52 24.75 30.65 26.24 30.83 26.76 30.89 27.14 31.33 27.14 31.85L27.14 43.76C27.14 44.3 26.72 44.74 26.18 44.77 23.81 44.91 21.34 45.34 20.14 45.56 19.16 45.75 17.35 46.12 15.5 46.65 14.85 46.84 14.2 46.34 14.2 45.66L14.2 31.85C14.2 31.33 14.59 30.89 15.1 30.83 16.59 30.65 18.45 30.52 20.67 30.52Z"
         fill="#A3C53A"
         id="path8"
         style="fill:#ffffff" />
      <path
         d="M27.67 54.18C27.8 54.6 27.66 55.05 27.3 55.31 25.25 56.82 23.2 58.8 22.26 59.74 21.51 60.49 20.1 61.94 18.8 63.54 18.35 64.09 17.51 64.03 17.13 63.43 15.23 60.38 14.2 56.45 14.2 51.82L14.2 49.62C14.2 49.18 14.48 48.78 14.9 48.65 16.35 48.18 18.21 47.69 20.47 47.26 22.68 46.84 24.55 46.61 26.06 46.52 26.65 46.48 27.15 46.95 27.15 47.54L27.15 50.44C27.14 51.81 27.32 53.06 27.67 54.18Z"
         fill="#A3C53A"
         id="path10"
         style="fill:#ffffff" />
      <path
         d="M34.73 69.25C34.77 69.77 34.42 70.24 33.91 70.34 33 70.51 32.06 70.6 31.1 70.6 26.47 70.6 22.64 69.19 19.8 66.63 19.4 66.27 19.35 65.66 19.68 65.24 20.61 64.04 21.87 62.59 23.49 60.97 25.17 59.29 26.66 58 27.89 57.06 28.32 56.73 28.94 56.8 29.29 57.22 30.41 58.55 31.95 59.43 33.84 59.73 34.36 59.81 34.73 60.29 34.69 60.81 34.57 62.42 34.55 63.9 34.55 64.76 34.55 65.7 34.57 67.42 34.73 69.25Z"
         fill="#A3C53A"
         id="path12"
         style="fill:#ffffff" />
      <path
         d="M43.88 61.28 43.88 61.37C43.87 62.94 43.28 64.45 42.25 65.63 40.89 67.18 39.29 68.42 37.53 69.32 36.87 69.65 36.09 69.21 36.04 68.48 35.97 67.47 35.93 66.34 35.93 65.09 35.93 63.52 35.99 62.12 36.09 60.91 36.13 60.45 36.47 60.09 36.92 60.01 38.02 59.81 39.03 59.45 39.93 58.93 41.7 57.91 43.9 59.24 43.88 61.28Z"
         fill="#A3C53A"
         id="path14"
         style="fill:#ffffff" />
      <path
         d="M15.09 79.69C17.61 81.94 20.55 83.59 23.7 84.58 24.24 84.75 24.54 85.32 24.37 85.86 24.18 86.47 23.97 87.1 23.73 87.77 23.66 87.98 23.58 88.19 23.51 88.39 23.32 88.9 22.76 89.17 22.24 89.01 17.15 87.45 12.82 84.68 9.77 80.94 9.47 80.57 9.46 80.04 9.75 79.66L11.25 77.73C11.61 77.26 12.3 77.2 12.74 77.59L15.09 79.69Z"
         fill="#A3C53A"
         id="path16"
         style="fill:#ffffff" />
      <path
         d="M40.04 87.5C40.12 87.85 40.2 88.19 40.27 88.53 40.39 89.09 40.04 89.64 39.48 89.76 37.25 90.23 34.84 90.47 32.28 90.47 30.14 90.47 28.06 90.29 26.07 89.93 25.44 89.82 25.07 89.17 25.28 88.57 25.31 88.49 25.34 88.41 25.36 88.34 25.55 87.81 25.82 87.02 26.1 86.09 26.25 85.61 26.72 85.3 27.22 85.38 28.35 85.55 29.5 85.63 30.66 85.63 30.85 85.63 31.05 85.63 31.25 85.62L35.17 85.52C36.6 85.49 38 85.28 39.35 84.91L39.35 84.91C39.59 85.71 39.82 86.57 40.04 87.5Z"
         fill="#A3C53A"
         id="path18"
         style="fill:#ffffff" />
      <path
         d="M52.52 77.35C53.07 77.66 53.59 77.97 54.09 78.27 54.57 78.56 54.72 79.19 54.43 79.67 51.93 83.84 48.14 86.9 43.27 88.68 42.69 88.89 42.05 88.54 41.92 87.93 41.85 87.61 41.78 87.33 41.73 87.1 41.62 86.64 41.46 86 41.26 85.27 41.13 84.78 41.37 84.27 41.83 84.06 43.91 83.14 45.81 81.82 47.43 80.14 48.35 79.18 49.14 78.13 49.81 77.01 50.09 76.54 50.68 76.36 51.17 76.62 51.6 76.84 52.05 77.08 52.52 77.35Z"
         fill="#A3C53A"
         id="path20"
         style="fill:#ffffff" />
      <path
         d="M55.05 31.9C54.62 31.9 54.04 31.9 53.37 31.92 52.79 31.94 52.31 31.47 52.31 30.9L52.31 18.69C52.31 18.14 52.75 17.68 53.3 17.66 53.87 17.64 54.45 17.63 55.04 17.63 55.63 17.63 56.21 17.64 56.78 17.66 57.33 17.68 57.77 18.13 57.77 18.68L57.8 30.9C57.8 31.48 57.32 31.94 56.74 31.93 56.07 31.91 55.48 31.9 55.05 31.9Z"
         fill="#A3C53A"
         id="path22"
         style="fill:#ffffff" />
      <path
         d="M57.84 51.49C57.84 52.07 57.36 52.53 56.78 52.52 56.08 52.5 55.48 52.5 55.04 52.5 54.61 52.5 54.03 52.5 53.36 52.52 52.78 52.54 52.3 52.07 52.3 51.5L52.3 34.69C52.3 34.14 52.74 33.68 53.29 33.67 53.85 33.65 54.43 33.64 55.04 33.64 55.66 33.64 56.25 33.65 56.81 33.67 57.36 33.69 57.8 34.14 57.8 34.69L57.84 51.49Z"
         fill="#A3C53A"
         id="path24"
         style="fill:#ffffff" />
      <path
         d="M57.87 65.96C57.87 69.72 57.28 73.11 56.15 76.09 55.92 76.69 55.21 76.93 54.66 76.6 54.15 76.29 53.7 76.04 53.36 75.85 52.97 75.63 52.43 75.33 51.79 75 51.34 74.76 51.13 74.24 51.3 73.76 51.97 71.82 52.31 69.77 52.31 67.68L52.31 55.28C52.31 54.73 52.75 54.27 53.3 54.26 53.86 54.24 54.44 54.23 55.05 54.23 55.68 54.23 56.29 54.24 56.87 54.26 57.42 54.28 57.85 54.73 57.86 55.28L57.87 65.96Z"
         fill="#A3C53A"
         id="path26"
         style="fill:#ffffff" />
      <path
         d="M25.8 78.69C26.35 78.86 26.66 79.45 26.48 80 26.37 80.32 26.26 80.65 26.14 80.99 25.97 81.47 25.8 81.93 25.63 82.37 25.44 82.87 24.88 83.14 24.37 82.98 21.39 82.07 18.62 80.53 16.25 78.41L13.69 76.12C13.29 75.76 13.23 75.15 13.56 74.73L15.17 72.65C15.58 72.12 16.36 72.12 16.78 72.64 19.16 75.52 22.27 77.62 25.8 78.69Z"
         fill="#A3C53A"
         id="path28"
         style="fill:#ffffff" />
      <path
         d="M46.25 73.82C46.86 74.16 47.43 74.5 47.96 74.82 48.44 75.11 48.59 75.74 48.3 76.22 45.61 80.68 40.77 83.67 35.13 83.8L31.21 83.9C30.23 83.92 29.26 83.88 28.29 83.78 27.63 83.71 27.22 83.02 27.46 82.4 27.58 82.08 27.68 81.8 27.76 81.57 27.89 81.2 28.06 80.69 28.25 80.11 28.4 79.66 28.84 79.36 29.32 79.41 29.96 79.48 30.62 79.51 31.28 79.51 36.84 79.51 40.99 77.32 43.24 73.37 43.51 72.89 44.11 72.69 44.61 72.95 45.14 73.2 45.68 73.5 46.25 73.82Z"
         fill="#A3C53A"
         id="path30"
         style="fill:#ffffff" />
      <path
         d="M50.58 18.69 50.58 30.9C50.58 31.48 50.1 31.94 49.52 31.92 48.85 31.9 48.27 31.9 47.85 31.9 47.43 31.9 46.85 31.9 46.18 31.92 45.6 31.94 45.12 31.47 45.12 30.9L45.12 18.69C45.12 18.14 45.56 17.68 46.11 17.66 46.67 17.64 47.25 17.63 47.85 17.63 48.44 17.63 49.02 17.64 49.59 17.66 50.15 17.68 50.58 18.13 50.58 18.69Z"
         fill="#A3C53A"
         id="path32"
         style="fill:#ffffff" />
      <path
         d="M47.86 33.63C48.47 33.63 49.05 33.64 49.6 33.66 50.15 33.68 50.59 34.13 50.59 34.68L50.59 51.49C50.59 52.07 50.11 52.53 49.53 52.51 48.86 52.49 48.28 52.49 47.86 52.49 47.44 52.49 46.86 52.49 46.19 52.51 45.61 52.53 45.13 52.06 45.13 51.49L45.13 34.69C45.13 34.14 45.57 33.68 46.12 33.67 46.67 33.64 47.25 33.63 47.86 33.63Z"
         fill="#A3C53A"
         id="path34"
         style="fill:#ffffff" />
      <path
         d="M47.86 54.22C48.47 54.22 49.05 54.23 49.6 54.25 50.15 54.27 50.59 54.72 50.59 55.27L50.59 67.97C50.59 69.54 50.37 71.05 49.95 72.47 49.76 73.12 49.01 73.41 48.43 73.07 47.91 72.76 47.45 72.49 47.11 72.3 46.63 72.03 45.92 71.64 45.09 71.22 44.66 71 44.45 70.52 44.57 70.05 44.94 68.63 45.13 67.06 45.13 65.36L45.13 55.28C45.13 54.73 45.57 54.27 46.12 54.26 46.67 54.23 47.25 54.22 47.86 54.22Z"
         fill="#A3C53A"
         id="path36"
         style="fill:#ffffff" />
      <path
         d="M38.46 55.61C37.63 57.32 36.58 58.69 35.58 59.5 35.59 58.21 36.02 56.53 36.84 54.83 37.66 53.12 38.72 51.75 39.72 50.94 39.71 52.22 39.28 53.91 38.46 55.61Z"
         fill="#A3C53A"
         id="path38"
         style="fill:#ffffff" />
      <path
         d="M32.69 55.61C33.52 57.32 34.57 58.69 35.57 59.5 35.56 58.21 35.13 56.53 34.31 54.83 33.49 53.12 32.43 51.75 31.43 50.94 31.44 52.22 31.87 53.91 32.69 55.61Z"
         fill="#A3C53A"
         id="path40"
         style="fill:#ffffff" />
      <path
         d="M4.67 77.61C6.38 78.44 7.75 79.49 8.56 80.49 7.27 80.48 5.59 80.05 3.89 79.23 2.18 78.41 0.8 77.36 0 76.35 1.29 76.36 2.97 76.79 4.67 77.61Z"
         fill="#A3C53A"
         id="path42"
         style="fill:#ffffff" />
      <path
         d="M4.67 83.38C6.38 82.55 7.75 81.5 8.56 80.5 7.27 80.51 5.59 80.94 3.89 81.76 2.18 82.58 0.8 83.63 0 84.64 1.29 84.63 2.97 84.2 4.67 83.38Z"
         fill="#A3C53A"
         id="path44"
         style="fill:#ffffff" />
      <path
         d="M10.97 13.7C11.8 15.41 12.85 16.78 13.85 17.59 13.84 16.3 13.41 14.62 12.59 12.92 11.77 11.21 10.71 9.84 9.71 9.03 9.71 10.31 10.14 11.99 10.97 13.7Z"
         fill="#A3C53A"
         id="path46"
         style="fill:#ffffff" />
      <path
         d="M61.6 28.75C60.77 30.46 59.72 31.83 58.72 32.64 58.73 31.35 59.16 29.67 59.98 27.97 60.8 26.26 61.86 24.89 62.86 24.08 62.85 25.36 62.43 27.05 61.6 28.75Z"
         fill="#A3C53A"
         id="path48"
         style="fill:#ffffff" />
      <path
         d="M61.6 49.53C60.77 51.24 59.72 52.61 58.72 53.42 58.73 52.13 59.16 50.45 59.98 48.75 60.8 47.04 61.86 45.67 62.86 44.86 62.85 46.14 62.43 47.83 61.6 49.53Z"
         fill="#A3C53A"
         id="path50"
         style="fill:#ffffff" />
    </g>
  </g>
</svg>
